<svg xmlns="http://www.w3.org/2000/svg" viewBox="0 0 512 512">
  <defs>
    <linearGradient id="bg" x1="0%" x2="100%" y1="0%" y2="100%">
      <stop offset="0%" stop-color="#431407" />
      <stop offset="55%" stop-color="#7f1d1d" />
      <stop offset="100%" stop-color="#14213d" />
    </linearGradient>
    <linearGradient id="face" x1="0%" x2="100%" y1="0%" y2="100%">
      <stop offset="0%" stop-color="#fb7185" />
      <stop offset="100%" stop-color="#ef4444" />
    </linearGradient>
  </defs>
  <rect width="512" height="512" rx="120" fill="url(#bg)" />
  <circle cx="394" cy="118" r="54" fill="#fca311" opacity=".18" />
  <path d="M120 224 182 118l50 84 28-96 52 96 56-84 44 104 50-52v222H120z" fill="url(#face)" />
  <rect x="108" y="194" width="296" height="246" rx="88" fill="url(#face)" />
  <path d="M158 238l44-50 38 50 28-40 38 40 46-54 48 54" fill="none" stroke="#fecdd3" stroke-linecap="round" stroke-linejoin="round" stroke-width="20" opacity=".7" />
  <ellipse cx="198" cy="298" rx="42" ry="48" fill="#fff5f7" />
  <ellipse cx="314" cy="298" rx="42" ry="48" fill="#fff5f7" />
  <circle cx="208" cy="304" r="18" fill="#14213d" />
  <circle cx="304" cy="304" r="18" fill="#14213d" />
  <path d="M172 374q38 50 84 0 46 50 84 0" fill="none" stroke="#7f1d1d" stroke-linecap="round" stroke-width="28" />
  <path d="M172 374l26 48 22-48m68 0 22 48 26-48" fill="none" stroke="#fff5f7" stroke-linecap="round" stroke-linejoin="round" stroke-width="22" />
  <path d="M76 396c28-38 68-58 110-64m250 64c-28-38-68-58-110-64" fill="none" stroke="#fecdd3" stroke-linecap="round" stroke-width="18" opacity=".55" />
</svg>
