<svg xmlns="http://www.w3.org/2000/svg" viewBox="0 0 192 192">
  <defs>
    <linearGradient id="bg" x1="0%" x2="100%" y1="0%" y2="100%">
      <stop offset="0%" stop-color="#431407" />
      <stop offset="55%" stop-color="#7f1d1d" />
      <stop offset="100%" stop-color="#14213d" />
    </linearGradient>
    <linearGradient id="face" x1="0%" x2="100%" y1="0%" y2="100%">
      <stop offset="0%" stop-color="#fb7185" />
      <stop offset="100%" stop-color="#ef4444" />
    </linearGradient>
  </defs>
  <rect width="192" height="192" rx="44" fill="url(#bg)" />
  <circle cx="148" cy="42" r="20" fill="#fca311" opacity=".18" />
  <path d="M44 84 66 48l18 30 12-34 20 34 20-30 14 36 18-18v84H44z" fill="url(#face)" />
  <rect x="40" y="72" width="112" height="96" rx="34" fill="url(#face)" />
  <path d="M59 88l18-20 14 20 12-18 14 18 16-22 18 22" fill="none" stroke="#fecdd3" stroke-linecap="round" stroke-linejoin="round" stroke-width="8" opacity=".7" />
  <ellipse cx="74" cy="112" rx="16" ry="18" fill="#fff5f7" />
  <ellipse cx="118" cy="112" rx="16" ry="18" fill="#fff5f7" />
  <circle cx="78" cy="114" r="7" fill="#14213d" />
  <circle cx="114" cy="114" r="7" fill="#14213d" />
  <path d="M64 140q14 18 32 0 18 18 32 0" fill="none" stroke="#7f1d1d" stroke-linecap="round" stroke-width="9" />
  <path d="M64 140l10 18 8-18m28 0 8 18 10-18" fill="none" stroke="#fff5f7" stroke-linecap="round" stroke-linejoin="round" stroke-width="7" />
  <path d="M30 148c12-14 26-22 42-24m90 24c-12-14-26-22-42-24" fill="none" stroke="#fecdd3" stroke-linecap="round" stroke-width="7" opacity=".55" />
</svg>
